<?xml version="1.0" encoding="UTF-8"?>
<svg width="20px" height="20px" viewBox="0 0 20 20" version="1.1" xmlns="http://www.w3.org/2000/svg" xmlns:xlink="http://www.w3.org/1999/xlink">
    <title>编组@3x</title>
    <g id="7月27日--AI脑图" stroke="none" stroke-width="1" fill="none" fill-rule="evenodd">
        <g id="画布" transform="translate(-64.000000, -705.000000)" fill="#818181" fill-rule="nonzero">
            <g id="编组" transform="translate(64.000000, 705.000000)">
                <path d="M18.3333333,15 C19.3333333,15 20,15.6666667 20,16.6666667 C20,17.6666667 19.3333333,18.3333333 18.3333333,18.3333333 L6.16666667,18.3333333 C5.66666667,19.3333333 4.5,20 3.33333333,20 C1.5,20 0,18.5 0,16.6666667 C0,14.8333333 1.5,13.3333333 3.33333333,13.3333333 C4.5,13.3333333 5.66666667,14 6.16666667,15 L18.3333333,15 Z" id="路径"></path>
                <path d="M11.6666667,0 C12.8333333,0 14,0.666666667 14.5,1.66666667 L18.3333333,1.66666667 C19.3333333,1.66666667 20,2.33333333 20,3.33333333 C20,4.33333333 19.3333333,5 18.3333333,5 L14.5,5 C14,6 12.8333333,6.66666667 11.6666667,6.66666667 C10.5,6.66666667 9.33333333,6 8.83333333,5 L1.66666667,5 C0.666666667,5 0,4.33333333 0,3.33333333 C0,2.33333333 0.666666667,1.66666667 1.66666667,1.66666667 L8.83333333,1.66666667 C9.33333333,0.666666667 10.5,0 11.6666667,0 Z" id="路径"></path>
                <path d="M8.33333333,8.33333333 L18.3333333,8.33333333 C19.3333333,8.33333333 20,9 20,10 C20,11 19.3333333,11.6666667 18.3333333,11.6666667 L8.33333333,11.6666667 C7.33333333,11.6666667 6.66666667,11 6.66666667,10 C6.66666667,9 7.33333333,8.33333333 8.33333333,8.33333333 Z" id="路径"></path>
                <path d="M1.66666667,8.33333333 L3.33333333,8.33333333 C4.33333333,8.33333333 5,9 5,10 C5,11 4.33333333,11.6666667 3.33333333,11.6666667 L1.66666667,11.6666667 C0.666666667,11.6666667 0,11 0,10 C0,9 0.666666667,8.33333333 1.66666667,8.33333333 Z" id="路径"></path>
                <path d="M11.6666667,5 C12.6666667,5 13.3333333,4.33333333 13.3333333,3.33333333 C13.3333333,2.33333333 12.6666667,1.66666667 11.6666667,1.66666667 C10.6666667,1.66666667 10,2.33333333 10,3.33333333 C10,4.33333333 10.6666667,5 11.6666667,5 Z" id="路径"></path>
                <path d="M3.33333333,18.3333333 C4.33333333,18.3333333 5,17.6666667 5,16.6666667 C5,15.6666667 4.33333333,15 3.33333333,15 C2.33333333,15 1.66666667,15.6666667 1.66666667,16.6666667 C1.66666667,17.6666667 2.33333333,18.3333333 3.33333333,18.3333333 Z" id="路径"></path>
            </g>
        </g>
    </g>
</svg>